<?xml version="1.0" encoding="UTF-8"?>
<!DOCTYPE svg PUBLIC "-//W3C//DTD SVG 1.0//EN" "http://www.w3.org/TR/2001/REC-SVG-20010904/DTD/svg10.dtd">
<!-- Creator: CorelDRAW -->
<svg xmlns="http://www.w3.org/2000/svg" xml:space="preserve" width="399px" height="85px" version="1.0" style="shape-rendering:geometricPrecision; text-rendering:geometricPrecision; image-rendering:optimizeQuality; fill-rule:evenodd; clip-rule:evenodd"
viewBox="0 0 68.91 14.75"
 xmlns:xlink="http://www.w3.org/1999/xlink"
 xmlns:xodm="http://www.corel.com/coreldraw/odm/2003">
 <defs>
  <style type="text/css">
   <![CDATA[
    .fil2 {fill:#A9ABAE;fill-rule:nonzero}
    .fil0 {fill:#B3B3B3;fill-rule:nonzero}
    .fil1 {fill:#CCCCCC;fill-rule:nonzero}
    .fil3 {fill:white;fill-rule:nonzero}
   ]]>
  </style>
 </defs>
 <g id="Capa_x0020_1">
  <metadata id="CorelCorpID_0Corel-Layer"/>
  <g id="_2636261930704">
   <path class="fil0" d="M13.7 12.56c0.24,0.1 0.42,0.24 0.55,0.4 0.12,0.17 0.18,0.38 0.18,0.61 0,0.34 -0.11,0.61 -0.33,0.82 -0.21,0.2 -0.5,0.31 -0.85,0.31 -0.3,0 -0.54,-0.08 -0.74,-0.22 -0.19,-0.15 -0.32,-0.36 -0.39,-0.64l0.39 -0.2c0.06,0.23 0.15,0.4 0.27,0.51 0.12,0.12 0.28,0.18 0.47,0.18 0.22,0 0.39,-0.07 0.53,-0.19 0.14,-0.13 0.2,-0.3 0.2,-0.5 0,-0.16 -0.04,-0.31 -0.14,-0.43 -0.09,-0.12 -0.24,-0.22 -0.43,-0.31l-0.45 -0.19c-0.24,-0.1 -0.43,-0.23 -0.54,-0.4 -0.12,-0.16 -0.19,-0.35 -0.19,-0.58 0,-0.26 0.1,-0.47 0.3,-0.65 0.19,-0.17 0.44,-0.25 0.74,-0.25 0.23,0 0.42,0.04 0.58,0.14 0.16,0.09 0.29,0.23 0.38,0.42l-0.36 0.23c-0.09,-0.15 -0.18,-0.25 -0.28,-0.32 -0.1,-0.07 -0.22,-0.11 -0.35,-0.11 -0.16,0 -0.3,0.05 -0.4,0.15 -0.11,0.11 -0.16,0.23 -0.16,0.39 0,0.13 0.04,0.24 0.12,0.34 0.08,0.1 0.21,0.18 0.38,0.25l0.52 0.24zm4.95 -0.82l-0.59 1.36 1.17 0 -0.58 -1.36zm0 -0.97l1.68 3.84 -0.48 0 -0.48 -1.14 -1.44 0 -0.48 1.14 -0.47 0 1.67 -3.84zm4.53 3.84l0 -3.84 2.7 2.95 0 -2.81 0.41 0 0 3.84 -2.7 -2.92 0 2.78 -0.41 0zm8.63 0l0 -3.28 -1.04 0 0 -0.42 2.52 0 0 0.42 -1.03 0 0 3.28 -0.45 0zm4.44 0l0 -3.7 1.95 0 0 0.41 -1.51 0 0 1.06 1.51 0 0 0.4 -1.51 0 0 1.42 1.51 0 0 0.41 -1.95 0zm5.16 0l0 -3.7 0.44 0 0 3.28 1.39 0 0 0.42 -1.83 0zm6.54 0.14l-1.14 -2.65 -0.47 2.51 -0.43 0 0.75 -3.84 1.29 3.05 1.29 -3.05 0.75 3.84 -0.43 0 -0.47 -2.51 -1.14 2.65zm6.88 -0.46c0.2,0 0.39,-0.04 0.57,-0.11 0.19,-0.08 0.35,-0.19 0.5,-0.34 0.14,-0.14 0.25,-0.31 0.33,-0.49 0.07,-0.18 0.11,-0.38 0.11,-0.58 0,-0.21 -0.04,-0.41 -0.11,-0.59 -0.08,-0.19 -0.19,-0.35 -0.33,-0.5 -0.15,-0.14 -0.31,-0.25 -0.49,-0.33 -0.18,-0.07 -0.38,-0.11 -0.58,-0.11 -0.21,0 -0.4,0.04 -0.58,0.11 -0.19,0.08 -0.35,0.19 -0.49,0.33 -0.14,0.15 -0.25,0.32 -0.33,0.5 -0.08,0.18 -0.11,0.38 -0.11,0.59 0,0.2 0.03,0.4 0.11,0.58 0.07,0.18 0.18,0.34 0.33,0.49 0.15,0.15 0.31,0.26 0.49,0.34 0.18,0.07 0.38,0.11 0.58,0.11zm1.97 -1.52c0,0.26 -0.05,0.51 -0.15,0.74 -0.09,0.24 -0.24,0.44 -0.42,0.63 -0.19,0.18 -0.4,0.32 -0.65,0.42 -0.24,0.09 -0.49,0.14 -0.75,0.14 -0.26,0 -0.51,-0.05 -0.75,-0.14 -0.24,-0.1 -0.46,-0.24 -0.65,-0.42 -0.18,-0.19 -0.33,-0.4 -0.43,-0.63 -0.09,-0.23 -0.14,-0.48 -0.14,-0.74 0,-0.27 0.05,-0.52 0.14,-0.75 0.1,-0.23 0.25,-0.44 0.43,-0.63 0.19,-0.18 0.4,-0.31 0.64,-0.41 0.25,-0.1 0.5,-0.15 0.76,-0.15 0.26,0 0.51,0.05 0.76,0.15 0.24,0.1 0.45,0.23 0.64,0.41 0.18,0.19 0.33,0.39 0.42,0.63 0.1,0.23 0.15,0.48 0.15,0.75z"/>
   <path class="fil1" d="M13.7 12.56c0.24,0.1 0.42,0.24 0.55,0.4 0.12,0.17 0.18,0.38 0.18,0.61 0,0.34 -0.11,0.61 -0.33,0.82 -0.21,0.2 -0.5,0.31 -0.85,0.31 -0.3,0 -0.54,-0.08 -0.74,-0.22 -0.19,-0.15 -0.32,-0.36 -0.39,-0.64l0.39 -0.2c0.06,0.23 0.15,0.4 0.27,0.51 0.12,0.12 0.28,0.18 0.47,0.18 0.22,0 0.39,-0.07 0.53,-0.19 0.14,-0.13 0.2,-0.3 0.2,-0.5 0,-0.16 -0.04,-0.31 -0.14,-0.43 -0.09,-0.12 -0.24,-0.22 -0.43,-0.31l-0.45 -0.19c-0.24,-0.1 -0.43,-0.23 -0.54,-0.4 -0.12,-0.16 -0.19,-0.35 -0.19,-0.58 0,-0.26 0.1,-0.47 0.3,-0.65 0.19,-0.17 0.44,-0.25 0.74,-0.25 0.23,0 0.42,0.04 0.58,0.14 0.16,0.09 0.29,0.23 0.38,0.42l-0.36 0.23c-0.09,-0.15 -0.18,-0.25 -0.28,-0.32 -0.1,-0.07 -0.22,-0.11 -0.35,-0.11 -0.16,0 -0.3,0.05 -0.4,0.15 -0.11,0.11 -0.16,0.23 -0.16,0.39 0,0.13 0.04,0.24 0.12,0.34 0.08,0.1 0.21,0.18 0.38,0.25l0.52 0.24zm4.95 -0.82l-0.59 1.36 1.17 0 -0.58 -1.36zm0 -0.97l1.68 3.84 -0.48 0 -0.48 -1.14 -1.44 0 -0.48 1.14 -0.47 0 1.67 -3.84zm4.53 3.84l0 -3.84 2.7 2.95 0 -2.81 0.41 0 0 3.84 -2.7 -2.92 0 2.78 -0.41 0zm8.63 0l0 -3.28 -1.04 0 0 -0.42 2.52 0 0 0.42 -1.03 0 0 3.28 -0.45 0zm4.44 0l0 -3.7 1.95 0 0 0.41 -1.51 0 0 1.06 1.51 0 0 0.4 -1.51 0 0 1.42 1.51 0 0 0.41 -1.95 0zm5.16 0l0 -3.7 0.44 0 0 3.28 1.39 0 0 0.42 -1.83 0zm6.54 0.14l-1.14 -2.65 -0.47 2.51 -0.43 0 0.75 -3.84 1.29 3.05 1.29 -3.05 0.75 3.84 -0.43 0 -0.47 -2.51 -1.14 2.65zm6.88 -0.46c0.2,0 0.39,-0.04 0.57,-0.11 0.19,-0.08 0.35,-0.19 0.5,-0.34 0.14,-0.14 0.25,-0.31 0.33,-0.49 0.07,-0.18 0.11,-0.38 0.11,-0.58 0,-0.21 -0.04,-0.41 -0.11,-0.59 -0.08,-0.19 -0.19,-0.35 -0.33,-0.5 -0.15,-0.14 -0.31,-0.25 -0.49,-0.33 -0.18,-0.07 -0.38,-0.11 -0.58,-0.11 -0.21,0 -0.4,0.04 -0.58,0.11 -0.19,0.08 -0.35,0.19 -0.49,0.33 -0.14,0.15 -0.25,0.32 -0.33,0.5 -0.08,0.18 -0.11,0.38 -0.11,0.59 0,0.2 0.03,0.4 0.11,0.58 0.07,0.18 0.18,0.34 0.33,0.49 0.15,0.15 0.31,0.26 0.49,0.34 0.18,0.07 0.38,0.11 0.58,0.11zm1.97 -1.52c0,0.26 -0.05,0.51 -0.15,0.74 -0.09,0.24 -0.24,0.44 -0.42,0.63 -0.19,0.18 -0.4,0.32 -0.65,0.42 -0.24,0.09 -0.49,0.14 -0.75,0.14 -0.26,0 -0.51,-0.05 -0.75,-0.14 -0.24,-0.1 -0.46,-0.24 -0.65,-0.42 -0.18,-0.19 -0.33,-0.4 -0.43,-0.63 -0.09,-0.23 -0.14,-0.48 -0.14,-0.74 0,-0.27 0.05,-0.52 0.14,-0.75 0.1,-0.23 0.25,-0.44 0.43,-0.63 0.19,-0.18 0.4,-0.31 0.64,-0.41 0.25,-0.1 0.5,-0.15 0.76,-0.15 0.26,0 0.51,0.05 0.76,0.15 0.24,0.1 0.45,0.23 0.64,0.41 0.18,0.19 0.33,0.39 0.42,0.63 0.1,0.23 0.15,0.48 0.15,0.75z"/>
   <path class="fil2" d="M2.06 12.63l9.31 0 0 0.26 -9.31 0 0 -0.26zm55.49 0l9.31 0 0 0.26 -9.31 0 0 -0.26z"/>
   <path class="fil3" d="M5.81 7.54l0 0.75 -5.81 0 0 -8.22 5.64 0 0 0.75 -4.77 0 0 2.93 4.25 0 0 0.74 -4.25 0 0 3.05 4.94 0z"/>
   <path id="_1" class="fil3" d="M16.9 0.07l-3.64 8.22 -0.86 0 -3.64 -8.22 0.94 0 3.15 7.14 3.17 -7.14 0.88 0z"/>
   <path id="_2" class="fil3" d="M26.22 7.54l0 0.75 -5.81 0 0 -8.22 5.63 0 0 0.75 -4.76 0 0 2.93 4.25 0 0 0.74 -4.25 0 0 3.05 4.94 0z"/>
   <path id="_3" class="fil3" d="M37.46 0.07l0 8.22 -0.72 0 -5.29 -6.67 0 6.67 -0.86 0 0 -8.22 0.71 0 5.3 6.67 0 -6.67 0.86 0z"/>
   <path id="_4" class="fil3" d="M44.05 0.82l-2.89 0 0 -0.75 6.65 0 0 0.75 -2.89 0 0 7.47 -0.87 0 0 -7.47z"/>
   <path id="_5" class="fil3" d="M55 8.36c-0.82,0 -1.56,-0.18 -2.22,-0.54 -0.66,-0.37 -1.18,-0.87 -1.55,-1.5 -0.37,-0.63 -0.56,-1.35 -0.56,-2.14 0,-0.79 0.19,-1.5 0.56,-2.14 0.37,-0.63 0.89,-1.13 1.55,-1.49 0.66,-0.37 1.4,-0.55 2.22,-0.55 0.81,0 1.55,0.18 2.2,0.54 0.65,0.36 1.17,0.86 1.54,1.5 0.38,0.64 0.57,1.35 0.57,2.14 0,0.79 -0.19,1.51 -0.57,2.15 -0.37,0.63 -0.89,1.13 -1.54,1.49 -0.65,0.36 -1.39,0.54 -2.2,0.54zm0 -0.77c0.65,0 1.23,-0.15 1.76,-0.44 0.52,-0.3 0.94,-0.7 1.23,-1.22 0.3,-0.52 0.45,-1.11 0.45,-1.75 0,-0.64 -0.15,-1.22 -0.45,-1.74 -0.29,-0.52 -0.71,-0.93 -1.23,-1.22 -0.53,-0.3 -1.11,-0.44 -1.76,-0.44 -0.65,0 -1.24,0.14 -1.77,0.44 -0.53,0.29 -0.94,0.7 -1.25,1.22 -0.3,0.52 -0.45,1.1 -0.45,1.74 0,0.64 0.15,1.23 0.45,1.75 0.31,0.52 0.72,0.92 1.25,1.22 0.53,0.29 1.12,0.44 1.77,0.44z"/>
   <path id="_6" class="fil3" d="M65.85 8.36c-0.61,0 -1.2,-0.09 -1.76,-0.29 -0.56,-0.2 -0.99,-0.45 -1.3,-0.78l0.34 -0.66c0.3,0.29 0.7,0.53 1.19,0.72 0.49,0.18 1,0.27 1.53,0.27 0.73,0 1.28,-0.13 1.65,-0.4 0.37,-0.27 0.55,-0.62 0.55,-1.05 0,-0.33 -0.09,-0.59 -0.29,-0.79 -0.2,-0.2 -0.45,-0.35 -0.74,-0.45 -0.29,-0.11 -0.69,-0.22 -1.21,-0.35 -0.62,-0.16 -1.11,-0.31 -1.48,-0.45 -0.37,-0.15 -0.68,-0.37 -0.94,-0.66 -0.27,-0.3 -0.4,-0.71 -0.4,-1.21 0,-0.42 0.11,-0.8 0.33,-1.14 0.22,-0.34 0.56,-0.61 1.01,-0.81 0.46,-0.21 1.02,-0.31 1.69,-0.31 0.47,0 0.93,0.06 1.38,0.19 0.45,0.13 0.84,0.31 1.17,0.54l-0.29 0.69c-0.35,-0.23 -0.71,-0.4 -1.11,-0.51 -0.39,-0.11 -0.77,-0.17 -1.15,-0.17 -0.72,0 -1.26,0.14 -1.62,0.42 -0.37,0.27 -0.55,0.63 -0.55,1.07 0,0.33 0.1,0.59 0.3,0.79 0.2,0.2 0.45,0.36 0.75,0.46 0.3,0.11 0.71,0.22 1.22,0.35 0.6,0.15 1.09,0.29 1.46,0.44 0.37,0.14 0.69,0.36 0.94,0.66 0.26,0.29 0.39,0.69 0.39,1.19 0,0.42 -0.11,0.79 -0.33,1.13 -0.23,0.34 -0.57,0.61 -1.03,0.81 -0.46,0.2 -1.03,0.3 -1.7,0.3z"/>
  </g>
 </g>
</svg>
