<?xml version="1.0" encoding="UTF-8"?>
<!DOCTYPE svg PUBLIC "-//W3C//DTD SVG 1.1//EN" "http://www.w3.org/Graphics/SVG/1.1/DTD/svg11.dtd">
<!-- Creator: CorelDRAW -->
<svg xmlns="http://www.w3.org/2000/svg" xml:space="preserve" width="1613px" height="844px" version="1.1" style="shape-rendering:geometricPrecision; text-rendering:geometricPrecision; image-rendering:optimizeQuality; fill-rule:evenodd; clip-rule:evenodd"
viewBox="0 0 1613 844"
 xmlns:xlink="http://www.w3.org/1999/xlink"
 xmlns:xodm="http://www.corel.com/coreldraw/odm/2003">
 <defs>
  <style type="text/css">
   <![CDATA[
    .fil1 {fill:white}
    .fil0 {fill:white;fill-rule:nonzero}
   ]]>
  </style>
 </defs>
 <g id="Capa_x0020_1">
  <metadata id="CorelCorpID_0Corel-Layer"/>
  <path class="fil0" d="M48 808l218 0 0 6 -218 0 0 -6zm1299 0l218 0 0 6 -218 0 0 -6z"/>
  <path class="fil0" d="M136 689l0 18 -136 0 0 -192 132 0 0 18 -112 0 0 68 100 0 0 17 -100 0 0 71 116 0zm259 -175l-85 192 -20 0 -85 -192 22 0 74 167 74 -167 21 0zm218 175l0 18 -136 0 0 -192 132 0 0 18 -112 0 0 68 100 0 0 17 -100 0 0 71 116 0zm263 -175l0 192 -17 0 -124 -156 0 156 -20 0 0 -192 17 0 124 156 0 -156 20 0zm154 18l-68 0 0 -18 156 0 0 18 -68 0 0 175 -20 0 0 -175zm256 177c-19,0 -36,-4 -52,-13 -15,-9 -28,-20 -36,-35 -9,-15 -13,-32 -13,-50 0,-19 4,-35 13,-50 9,-15 21,-27 36,-35 15,-9 33,-13 52,-13 19,0 36,4 52,13 15,8 27,20 36,35 9,15 13,32 13,50 0,19 -4,35 -13,50 -9,15 -21,27 -36,35 -15,8 -32,13 -52,13zm0 -18c15,0 29,-3 41,-10 12,-7 22,-16 29,-29 7,-12 10,-26 10,-41 0,-15 -3,-29 -10,-41 -7,-12 -17,-22 -29,-29 -12,-7 -26,-10 -41,-10 -15,0 -29,3 -41,10 -12,7 -22,16 -29,29 -7,12 -11,26 -11,41 0,15 4,29 11,41 7,12 17,22 29,29 12,7 26,10 41,10zm254 18c-14,0 -28,-2 -41,-7 -13,-5 -23,-11 -30,-18l8 -16c7,7 16,13 28,17 12,4 23,6 36,6 17,0 30,-3 39,-9 9,-6 13,-15 13,-25 0,-8 -2,-14 -7,-18 -5,-5 -10,-8 -17,-11 -7,-2 -16,-5 -28,-8 -14,-4 -26,-7 -35,-11 -9,-3 -16,-9 -22,-16 -6,-7 -9,-16 -9,-28 0,-10 3,-19 8,-27 5,-8 13,-14 24,-19 11,-5 24,-7 40,-7 11,0 22,2 32,5 11,3 20,7 27,13l-7 16c-8,-5 -17,-9 -26,-12 -9,-3 -18,-4 -27,-4 -17,0 -30,3 -38,10 -9,7 -13,15 -13,25 0,8 2,14 7,19 5,5 11,8 18,11 7,2 17,5 28,8 14,3 26,7 34,10 9,3 16,9 22,15 6,7 9,16 9,28 0,10 -3,19 -8,27 -5,8 -13,14 -24,19 -11,5 -24,7 -40,7z"/>
  <path class="fil1" d="M743 91l5 149 63 -59 -59 64 150 4 -149 5 59 63 -63 -59 -4 150 -5 -149 -63 59 59 -64 -150 -4 149 -5 -59 -63 64 59 4 -150zm108 -91l2 67 28 -27 -27 29 67 2 -67 2 27 28 -29 -27 -2 67 -2 -67 -28 27 27 -29 -67 -2 67 -2 -27 -28 29 27 2 -67zm78 277l3 94 39 -37 -37 40 94 3 -94 3 37 39 -40 -37 -3 94 -3 -94 -39 37 37 -40 -94 -3 94 -3 -37 -39 40 37 3 -94z"/>
 </g>
 <g id="Capa_x0020_1_0">
  <metadata id="CorelCorpID_1Corel-Layer"/>
  <path class="fil0" d="M350 810c4,1 7,3 10,5 2,3 3,6 3,10 0,5 -2,10 -6,13 -4,3 -10,4 -18,4l-29 0 0 -63 27 0c7,0 13,1 16,4 4,3 6,7 6,12 0,3 -1,6 -3,9 -2,2 -4,4 -7,5zm-33 -25l0 23 20 0c5,0 9,-1 12,-3 3,-2 4,-5 4,-9 0,-4 -1,-7 -4,-9 -3,-2 -7,-3 -12,-3l-20 0zm22 52c6,0 10,-1 13,-3 3,-2 4,-5 4,-9 0,-8 -6,-12 -17,-12l-22 0 0 24 22 0zm93 6c-8,0 -15,-2 -19,-7 -5,-5 -7,-12 -7,-21l0 -36 7 0 0 36c0,7 2,13 5,16 3,4 8,5 14,5 6,0 11,-2 14,-5 3,-4 5,-9 5,-16l0 -36 7 0 0 36c0,9 -2,16 -7,21 -5,5 -11,7 -19,7zm119 -6l0 6 -45 0 0 -63 43 0 0 6 -37 0 0 23 33 0 0 6 -33 0 0 24 38 0zm97 -58l0 63 -6 0 -41 -51 0 51 -7 0 0 -63 6 0 41 51 0 -51 7 0zm76 64c-6,0 -12,-1 -17,-4 -5,-3 -9,-7 -12,-12 -3,-5 -4,-10 -4,-16 0,-6 1,-12 4,-16 3,-5 7,-9 12,-12 5,-3 11,-4 17,-4 6,0 12,1 17,4 5,3 9,7 12,12 3,5 4,10 4,17 0,6 -1,12 -4,17 -3,5 -7,9 -12,12 -5,3 -11,4 -17,4zm0 -6c5,0 10,-1 14,-3 4,-2 7,-5 10,-9 2,-4 3,-8 3,-13 0,-5 -1,-9 -3,-13 -2,-4 -5,-7 -10,-9 -4,-2 -9,-3 -14,-3 -5,0 -10,1 -14,3 -4,2 -7,5 -10,9 -2,4 -3,8 -3,13 0,5 1,9 3,13 2,4 6,7 10,9 4,2 9,3 14,3zm94 6c-5,0 -9,-1 -14,-2 -4,-2 -8,-4 -10,-6l3 -5c2,2 5,4 9,6 4,1 8,2 12,2 6,0 10,-1 13,-3 3,-2 4,-5 4,-8 0,-3 -1,-5 -2,-6 -2,-2 -3,-3 -6,-3 -2,-1 -5,-2 -9,-3 -5,-1 -9,-2 -11,-3 -3,-1 -5,-3 -7,-5 -2,-2 -3,-5 -3,-9 0,-3 1,-6 3,-9 2,-3 4,-5 8,-6 4,-2 8,-2 13,-2 4,0 7,0 11,1 3,1 6,2 9,4l-2 5c-3,-2 -5,-3 -9,-4 -3,-1 -6,-1 -9,-1 -6,0 -10,1 -13,3 -3,2 -4,5 -4,8 0,3 1,5 2,6 2,2 3,3 6,4 2,1 5,2 9,3 5,1 8,2 11,3 3,1 5,3 7,5 2,2 3,5 3,9 0,3 -1,6 -3,9 -2,3 -4,5 -8,6 -4,2 -8,2 -13,2zm153 -17l-35 0 -8 17 -7 0 29 -63 7 0 29 63 -7 0 -8 -17zm-2 -5l-15 -34 -15 34 30 0zm56 -41l7 0 0 63 -7 0 0 -63zm99 63l-14 -20c-2,0 -3,0 -5,0l-17 0 0 20 -7 0 0 -63 24 0c8,0 14,2 19,6 5,4 7,9 7,16 0,5 -1,9 -4,13 -3,3 -6,6 -11,7l15 22 -7 0zm-20 -26c6,0 11,-1 14,-4 3,-3 5,-7 5,-12 0,-5 -2,-9 -5,-12 -3,-3 -8,-4 -14,-4l-17 0 0 32 17 0zm115 20l0 6 -45 0 0 -63 43 0 0 6 -37 0 0 23 33 0 0 6 -33 0 0 24 38 0zm61 6c-5,0 -9,-1 -14,-2 -4,-2 -8,-4 -10,-6l3 -5c2,2 5,4 9,6 4,1 8,2 12,2 6,0 10,-1 13,-3 3,-2 4,-5 4,-8 0,-3 -1,-5 -2,-6 -2,-2 -3,-3 -6,-3 -2,-1 -5,-2 -9,-3 -5,-1 -9,-2 -11,-3 -3,-1 -5,-3 -7,-5 -2,-2 -3,-5 -3,-9 0,-3 1,-6 3,-9 2,-3 4,-5 8,-6 4,-2 8,-2 13,-2 4,0 7,0 11,1 3,1 6,2 9,4l-2 5c-3,-2 -5,-3 -9,-4 -3,-1 -6,-1 -9,-1 -6,0 -10,1 -13,3 -3,2 -4,5 -4,8 0,3 1,5 2,6 2,2 3,3 6,4 2,1 5,2 9,3 5,1 8,2 11,3 3,1 5,3 7,5 2,2 3,5 3,9 0,3 -1,6 -3,9 -2,3 -4,5 -8,6 -4,2 -8,2 -13,2z"/>
 </g>
</svg>
