<?xml version="1.0" encoding="UTF-8"?>
<!DOCTYPE svg PUBLIC "-//W3C//DTD SVG 1.0//EN" "http://www.w3.org/TR/2001/REC-SVG-20010904/DTD/svg10.dtd">
<!-- Creator: CorelDRAW -->
<svg xmlns="http://www.w3.org/2000/svg" xml:space="preserve" width="618px" height="329px" version="1.0" style="shape-rendering:geometricPrecision; text-rendering:geometricPrecision; image-rendering:optimizeQuality; fill-rule:evenodd; clip-rule:evenodd"
viewBox="0 0 656.59 349.78"
 xmlns:xlink="http://www.w3.org/1999/xlink"
 xmlns:xodm="http://www.corel.com/coreldraw/odm/2003">
 <defs>
  <style type="text/css">
   <![CDATA[
    .fil4 {fill:white}
    .fil2 {fill:#A9ABAE;fill-rule:nonzero}
    .fil0 {fill:#B3B3B3;fill-rule:nonzero}
    .fil1 {fill:#CCCCCC;fill-rule:nonzero}
    .fil3 {fill:white;fill-rule:nonzero}
   ]]>
  </style>
 </defs>
 <g id="Capa_x0020_1">
  <metadata id="CorelCorpID_0Corel-Layer"/>
  <g id="_2636262279808">
   <path class="fil0" d="M130.55 328.88c2.29,0.98 4.02,2.27 5.17,3.89 1.16,1.61 1.75,3.53 1.75,5.74 0,3.22 -1.04,5.83 -3.09,7.81 -2.06,1.97 -4.78,2.96 -8.18,2.96 -2.77,0 -5.09,-0.7 -6.97,-2.12 -1.87,-1.42 -3.13,-3.43 -3.79,-6.03l3.79 -1.88c0.52,2.13 1.36,3.75 2.54,4.84 1.17,1.1 2.65,1.65 4.43,1.65 2.1,0 3.79,-0.6 5.09,-1.81 1.3,-1.21 1.95,-2.79 1.95,-4.72 0,-1.57 -0.45,-2.93 -1.36,-4.1 -0.9,-1.16 -2.27,-2.14 -4.09,-2.94l-4.28 -1.83c-2.34,-0.97 -4.08,-2.23 -5.22,-3.77 -1.15,-1.53 -1.72,-3.38 -1.72,-5.52 0,-2.5 0.92,-4.57 2.78,-6.2 1.86,-1.63 4.23,-2.45 7.12,-2.45 2.1,0 3.94,0.45 5.48,1.34 1.55,0.9 2.76,2.22 3.62,3.98l-3.46 2.2c-0.78,-1.36 -1.67,-2.37 -2.64,-3.03 -0.98,-0.66 -2.08,-1 -3.31,-1 -1.58,0 -2.86,0.48 -3.86,1.44 -1,0.96 -1.51,2.18 -1.51,3.68 0,1.24 0.39,2.32 1.16,3.23 0.76,0.92 1.96,1.72 3.57,2.43l5.03 2.21zm47.11 -7.78l-5.59 12.94 11.19 0 -5.6 -12.94zm0 -9.24l15.99 36.54 -4.53 0 -4.57 -10.77 -13.73 0 -4.56 10.77 -4.53 0 15.93 -36.54zm43.15 36.54l0 -36.54 25.72 28.09 0 -26.71 3.99 0 0 36.54 -25.72 -27.8 0 26.42 -3.99 0zm82.29 0l0 -31.18 -9.94 0 0 -3.98 24.05 0 0 3.98 -9.88 0 0 31.18 -4.23 0zm42.3 0l0 -35.16 18.54 0 0 3.83 -14.36 0 0 10.08 14.36 0 0 3.89 -14.36 0 0 13.47 14.36 0 0 3.89 -18.54 0zm49.14 0l0 -35.16 4.18 0 0 31.17 13.28 0 0 3.99 -17.46 0zm62.32 1.38l-10.92 -25.27 -4.42 23.89 -4.08 0 7.13 -36.54 12.29 29.07 12.3 -29.07 7.13 36.54 -4.08 0 -4.47 -23.89 -10.88 25.27zm65.52 -4.38c1.92,0 3.75,-0.36 5.48,-1.09 1.74,-0.73 3.3,-1.8 4.7,-3.19 1.37,-1.38 2.42,-2.93 3.14,-4.68 0.73,-1.75 1.09,-3.6 1.09,-5.55 0,-1.97 -0.36,-3.84 -1.09,-5.62 -0.73,-1.78 -1.78,-3.35 -3.14,-4.71 -1.38,-1.37 -2.94,-2.42 -4.68,-3.15 -1.72,-0.72 -3.57,-1.08 -5.5,-1.08 -1.95,0 -3.81,0.36 -5.55,1.08 -1.75,0.73 -3.29,1.78 -4.63,3.15 -1.38,1.4 -2.43,2.97 -3.15,4.73 -0.72,1.76 -1.08,3.63 -1.08,5.6 0,1.95 0.35,3.79 1.06,5.53 0.72,1.72 1.77,3.29 3.17,4.7 1.41,1.41 2.97,2.48 4.69,3.2 1.72,0.72 3.55,1.08 5.49,1.08zm18.78 -14.51c0,2.52 -0.46,4.89 -1.39,7.11 -0.93,2.23 -2.28,4.2 -4.06,5.93 -1.78,1.73 -3.82,3.06 -6.14,4 -2.32,0.93 -4.71,1.4 -7.19,1.4 -2.49,0 -4.87,-0.47 -7.17,-1.4 -2.3,-0.94 -4.34,-2.27 -6.12,-4 -1.79,-1.74 -3.16,-3.73 -4.1,-5.96 -0.93,-2.22 -1.4,-4.58 -1.4,-7.08 0,-2.52 0.47,-4.88 1.4,-7.12 0.94,-2.23 2.31,-4.22 4.1,-5.97 1.76,-1.71 3.8,-3.03 6.11,-3.96 2.3,-0.92 4.69,-1.39 7.18,-1.39 2.5,0 4.9,0.47 7.22,1.39 2.31,0.93 4.35,2.25 6.11,3.96 1.78,1.73 3.13,3.71 4.06,5.94 0.93,2.24 1.39,4.62 1.39,7.15z"/>
   <path class="fil1" d="M130.55 328.88c2.29,0.98 4.02,2.27 5.17,3.89 1.16,1.61 1.75,3.53 1.75,5.74 0,3.22 -1.04,5.83 -3.09,7.81 -2.06,1.97 -4.78,2.96 -8.18,2.96 -2.77,0 -5.09,-0.7 -6.97,-2.12 -1.87,-1.42 -3.13,-3.43 -3.79,-6.03l3.79 -1.88c0.52,2.13 1.36,3.75 2.54,4.84 1.17,1.1 2.65,1.65 4.43,1.65 2.1,0 3.79,-0.6 5.09,-1.81 1.3,-1.21 1.95,-2.79 1.95,-4.72 0,-1.57 -0.45,-2.93 -1.36,-4.1 -0.9,-1.16 -2.27,-2.14 -4.09,-2.94l-4.28 -1.83c-2.34,-0.97 -4.08,-2.23 -5.22,-3.77 -1.15,-1.53 -1.72,-3.38 -1.72,-5.52 0,-2.5 0.92,-4.57 2.78,-6.2 1.86,-1.63 4.23,-2.45 7.12,-2.45 2.1,0 3.94,0.45 5.48,1.34 1.55,0.9 2.76,2.22 3.62,3.98l-3.46 2.2c-0.78,-1.36 -1.67,-2.37 -2.64,-3.03 -0.98,-0.66 -2.08,-1 -3.31,-1 -1.58,0 -2.86,0.48 -3.86,1.44 -1,0.96 -1.51,2.18 -1.51,3.68 0,1.24 0.39,2.32 1.16,3.23 0.76,0.92 1.96,1.72 3.57,2.43l5.03 2.21zm47.11 -7.78l-5.59 12.94 11.19 0 -5.6 -12.94zm0 -9.24l15.99 36.54 -4.53 0 -4.57 -10.77 -13.73 0 -4.56 10.77 -4.53 0 15.93 -36.54zm43.15 36.54l0 -36.54 25.72 28.09 0 -26.71 3.99 0 0 36.54 -25.72 -27.8 0 26.42 -3.99 0zm82.29 0l0 -31.18 -9.94 0 0 -3.98 24.05 0 0 3.98 -9.88 0 0 31.18 -4.23 0zm42.3 0l0 -35.16 18.54 0 0 3.83 -14.36 0 0 10.08 14.36 0 0 3.89 -14.36 0 0 13.47 14.36 0 0 3.89 -18.54 0zm49.14 0l0 -35.16 4.18 0 0 31.17 13.28 0 0 3.99 -17.46 0zm62.32 1.38l-10.92 -25.27 -4.42 23.89 -4.08 0 7.13 -36.54 12.29 29.07 12.3 -29.07 7.13 36.54 -4.08 0 -4.47 -23.89 -10.88 25.27zm65.52 -4.38c1.92,0 3.75,-0.36 5.48,-1.09 1.74,-0.73 3.3,-1.8 4.7,-3.19 1.37,-1.38 2.42,-2.93 3.14,-4.68 0.73,-1.75 1.09,-3.6 1.09,-5.55 0,-1.97 -0.36,-3.84 -1.09,-5.62 -0.73,-1.78 -1.78,-3.35 -3.14,-4.71 -1.38,-1.37 -2.94,-2.42 -4.68,-3.15 -1.72,-0.72 -3.57,-1.08 -5.5,-1.08 -1.95,0 -3.81,0.36 -5.55,1.08 -1.75,0.73 -3.29,1.78 -4.63,3.15 -1.38,1.4 -2.43,2.97 -3.15,4.73 -0.72,1.76 -1.08,3.63 -1.08,5.6 0,1.95 0.35,3.79 1.06,5.53 0.72,1.72 1.77,3.29 3.17,4.7 1.41,1.41 2.97,2.48 4.69,3.2 1.72,0.72 3.55,1.08 5.49,1.08zm18.78 -14.51c0,2.52 -0.46,4.89 -1.39,7.11 -0.93,2.23 -2.28,4.2 -4.06,5.93 -1.78,1.73 -3.82,3.06 -6.14,4 -2.32,0.93 -4.71,1.4 -7.19,1.4 -2.49,0 -4.87,-0.47 -7.17,-1.4 -2.3,-0.94 -4.34,-2.27 -6.12,-4 -1.79,-1.74 -3.16,-3.73 -4.1,-5.96 -0.93,-2.22 -1.4,-4.58 -1.4,-7.08 0,-2.52 0.47,-4.88 1.4,-7.12 0.94,-2.23 2.31,-4.22 4.1,-5.97 1.76,-1.71 3.8,-3.03 6.11,-3.96 2.3,-0.92 4.69,-1.39 7.18,-1.39 2.5,0 4.9,0.47 7.22,1.39 2.31,0.93 4.35,2.25 6.11,3.96 1.78,1.73 3.13,3.71 4.06,5.94 0.93,2.24 1.39,4.62 1.39,7.15z"/>
   <path class="fil2" d="M19.6 329.61l88.74 0 0 2.41 -88.74 0 0 -2.41zm528.66 0l88.73 0 0 2.41 -88.73 0 0 -2.41z"/>
   <path class="fil3" d="M55.4 281.1l0 7.16 -55.4 0 0 -78.34 53.72 0 0 7.16 -45.44 0 0 27.87 40.52 0 0 7.05 -40.52 0 0 29.1 47.12 0z"/>
   <path id="_1" class="fil3" d="M161.01 209.92l-34.7 78.34 -8.17 0 -34.69 -78.34 8.95 0 30 68.04 30.21 -68.04 8.4 0z"/>
   <path id="_2" class="fil3" d="M249.83 281.1l0 7.16 -55.4 0 0 -78.34 53.72 0 0 7.16 -45.44 0 0 27.87 40.51 0 0 7.05 -40.51 0 0 29.1 47.12 0z"/>
   <path id="_3" class="fil3" d="M356.89 209.92l0 78.34 -6.83 0 -50.36 -63.57 0 63.57 -8.28 0 0 -78.34 6.82 0 50.48 63.57 0 -63.57 8.17 0z"/>
   <path id="_4" class="fil3" d="M419.74 217.08l-27.53 0 0 -7.16 63.35 0 0 7.16 -27.53 0 0 71.18 -8.29 0 0 -71.18z"/>
   <path id="_5" class="fil3" d="M524.01 288.93c-7.76,0 -14.79,-1.73 -21.1,-5.2 -6.3,-3.47 -11.23,-8.23 -14.77,-14.27 -3.55,-6.05 -5.32,-12.84 -5.32,-20.37 0,-7.54 1.77,-14.33 5.32,-20.37 3.54,-6.05 8.47,-10.8 14.77,-14.27 6.31,-3.47 13.34,-5.21 21.1,-5.21 7.76,0 14.75,1.72 20.98,5.15 6.23,3.43 11.14,8.19 14.72,14.27 3.58,6.08 5.37,12.89 5.37,20.43 0,7.53 -1.79,14.34 -5.37,20.42 -3.58,6.09 -8.49,10.84 -14.72,14.27 -6.23,3.44 -13.22,5.15 -20.98,5.15zm0 -7.38c6.19,0 11.79,-1.4 16.79,-4.2 5,-2.8 8.91,-6.68 11.75,-11.64 2.83,-4.96 4.25,-10.5 4.25,-16.62 0,-6.12 -1.42,-11.66 -4.25,-16.62 -2.84,-4.96 -6.75,-8.84 -11.75,-11.64 -5,-2.8 -10.6,-4.2 -16.79,-4.2 -6.19,0 -11.81,1.4 -16.85,4.2 -5.03,2.8 -8.99,6.68 -11.86,11.64 -2.87,4.96 -4.31,10.5 -4.31,16.62 0,6.12 1.44,11.66 4.31,16.62 2.87,4.96 6.83,8.84 11.86,11.64 5.04,2.8 10.66,4.2 16.85,4.2z"/>
   <path id="_6" class="fil3" d="M627.38 288.93c-5.82,0 -11.4,-0.93 -16.73,-2.8 -5.34,-1.86 -9.46,-4.32 -12.37,-7.38l3.25 -6.38c2.83,2.83 6.6,5.13 11.3,6.88 4.7,1.75 9.55,2.63 14.55,2.63 7.01,0 12.27,-1.29 15.78,-3.86 3.51,-2.57 5.26,-5.91 5.26,-10.02 0,-3.13 -0.95,-5.63 -2.85,-7.5 -1.91,-1.86 -4.24,-3.3 -7,-4.31 -2.76,-1 -6.6,-2.1 -11.53,-3.3 -5.89,-1.49 -10.59,-2.93 -14.1,-4.31 -3.51,-1.38 -6.51,-3.48 -9.01,-6.32 -2.5,-2.83 -3.75,-6.68 -3.75,-11.53 0,-3.95 1.05,-7.55 3.14,-10.8 2.08,-3.24 5.29,-5.84 9.62,-7.78 4.33,-1.94 9.7,-2.91 16.12,-2.91 4.47,0 8.86,0.62 13.15,1.85 4.29,1.23 8,2.93 11.14,5.09l-2.8 6.61c-3.29,-2.17 -6.79,-3.79 -10.52,-4.87 -3.73,-1.08 -7.39,-1.62 -10.97,-1.62 -6.87,0 -12.03,1.32 -15.5,3.97 -3.47,2.65 -5.21,6.06 -5.21,10.24 0,3.13 0.95,5.65 2.86,7.55 1.9,1.91 4.29,3.36 7.16,4.37 2.87,1.01 6.73,2.11 11.58,3.3 5.75,1.42 10.39,2.82 13.94,4.2 3.54,1.38 6.54,3.47 9.01,6.26 2.46,2.8 3.69,6.59 3.69,11.37 0,3.95 -1.06,7.55 -3.19,10.8 -2.13,3.24 -5.39,5.82 -9.79,7.72 -4.4,1.9 -9.81,2.85 -16.23,2.85z"/>
   <path class="fil4" d="M337.69 40.08l3.16 50.57 20.3 -17.87 -17.86 20.25 50.56 3.21 -50.57 3.17 17.87 20.29 -20.25 -17.86 -3.21 50.56 -3.17 -50.57 -20.3 17.87 17.87 -20.25 -50.56 -3.21 50.57 -3.16 -17.88 -20.3 20.25 17.86 3.22 -50.56zm-19.61 -40.08l1.26 20.14 8.09 -7.12 -7.12 8.07 20.14 1.28 -20.14 1.26 7.12 8.08 -8.07 -7.11 -1.28 20.14 -1.26 -20.15 -8.09 7.12 7.12 -8.06 -20.14 -1.28 20.14 -1.26 -7.12 -8.09 8.07 7.12 1.28 -20.14zm-24.45 124.19l1.74 27.8 11.16 -9.82 -9.83 11.13 27.8 1.77 -27.8 1.74 9.83 11.16 -11.14 -9.83 -1.76 27.8 -1.74 -27.8 -11.16 9.83 9.82 -11.14 -27.8 -1.76 27.8 -1.74 -9.82 -11.16 11.13 9.82 1.77 -27.8z"/>
  </g>
 </g>
</svg>
